<svg xmlns="http://www.w3.org/2000/svg" fill="none" viewBox="0 0 24 24" id="Braze--Streamline-Svg-Logos" height="24" width="24">
  <desc>
    Braze Streamline Icon: https://streamlinehq.com
  </desc>
  <path fill="#212124" d="M23.715775 13.009125s-0.23235 -0.325875 -0.3041 -0.4188c-0.05 -0.060875 -0.110875 -0.13235 -0.268225 -0.025 -0.3538 0.236175 -0.75085 0.4544 -1.240525 0.4544 -0.375575 0 -0.70085 -0.096475 -0.944075 -0.304125 0.103825 -0.04675 0.210875 -0.09675 0.318225 -0.157625 0.579375 -0.31145 1.0617 -0.712325 1.29435 -0.94495 1.1264 -1.1276 0.776125 -2.80985 -0.60055 -2.80985 -1.298175 0 -2.320475 1.26345 -2.320475 2.67045 0 0.210875 0.0247 0.51525 0.1141 0.833775 -0.075 0.035875 -0.589975 0.28645 -1.204925 0.626425 -0.5794 -0.4332 -1.480525 -0.239675 -1.480525 -0.239675 0.836725 -1.192 2.099025 -3.04985 2.206375 -3.203675 0.078525 -0.11115 0.0644 -0.2185 -0.0109 -0.390275 -0.09645 -0.207625 -0.192925 -0.2435 -0.32175 -0.2435H16.33175c-0.0856 0 -0.153525 0.0394 -0.178825 0.136175 -0.025 0.09645 -0.078525 0.429375 -0.0891 0.54055 -0.0109 0.1147 0.09645 0.186175 0.207325 0.186175h1.898725l-1.716375 2.458975c-0.010875 0.0109 -0.021475 0.021475 -0.03235 0.035875 -0.25 0.361475 -0.6329 0.86615 -1.090525 0.86615 -0.286175 0 -0.639975 -0.204125 -0.639975 -0.8735 0 -0.65495 0.2647 -2.040175 0.457625 -3.1213 0.021475 -0.1147 -0.01765 -0.2291 -0.203825 -0.2291h-0.464675c-0.10735 0 -0.168225 0.0647 -0.18235 0.157625 -0.0288 0.1647 -0.05735 0.325575 -0.08235 0.483225 -0.2288 -0.440275 -0.597025 -0.69115 -1.1264 -0.69115 -0.4935 0 -0.9726 0.182925 -1.365825 0.57645 -0.97995 0.980825 -0.794075 2.581025 -1.641075 3.429225 -0.364975 0.365275 -0.776425 0.2541 -0.776425 -0.465275 0 -0.81965 0.314675 -1.736075 0.6726 -2.6022 0.064125 -0.154125 -0.003825 -0.28295 -0.07175 -0.3794 -0.096475 -0.1397 -0.13235 -0.211475 -0.303825 -0.211475 -0.268225 0 -0.693775 0.168525 -1.54815 0.168525 -0.18235 0 -0.3541 -0.00735 -0.511725 -0.017925 0.010875 -0.128825 0.010875 -0.2147 0.0147 -0.24705 0.00705 -0.12175 -0.035875 -0.19705 -0.1647 -0.19705h-0.43615c-0.15735 0 -0.19675 0.0753 -0.2147 0.200575 -0.075 0.522625 -0.2144 2.444875 -1.17995 3.407775 -0.110875 0.110875 -0.1788 0.14675 -0.1788 0.14675 0.2397 -0.4691 0.3685 -1.08465 0.3685 -1.574925 0 -1.374625 -0.811725 -2.22635 -1.8343 -2.22635 -0.311175 0 -0.640275 0.1 -0.95115 0.293225 0.14295 -0.8376 0.2753 -1.6214 0.32175 -1.886375 0.039425 -0.225575 -0.0394 -0.339975 -0.099975 -0.433225 -0.097075 -0.149975 -0.18235 -0.218225 -0.311475 -0.218225H1.36722c-0.08588 0 -0.1499925 0.060875 -0.1717575 0.15765 -0.0249975 0.110875 -0.078525 0.4044 -0.0855825 0.540275 -0.0073525 0.118225 0.074995 0.164675 0.17146 0.164675h1.101415c-0.17499 1.081425 -0.51115 3.175425 -0.61144 3.7013 -0.1282275 0.669375 -0.604085 1.489025 -1.4046325 1.78285 -0.099995 0.035875 -0.139405 0.1288 -0.1038175 0.23645 0.03588 0.10735 0.175285 0.38645 0.2182225 0.457925 0.04294 0.075275 0.135875 0.12175 0.221755 0.093225 0.4146825 -0.14705 0.7970175 -0.382925 1.09759 -0.6838 0.074995 -0.075 0.1467575 -0.157325 0.214695 -0.24705 0.357335 0.8091 1.0940725 1.1029 1.8410725 1.1029 0.8476 0 1.76315 -0.29735 2.40665 -0.9382 0.751125 -0.751725 1.062 -1.990175 1.197875 -2.870425 0.185875 0.0247 0.39705 0.046175 0.60085 0.046175 0.514675 0 0.9476 -0.110875 0.9476 -0.110875s-0.5185 1.381675 -0.5185 2.3984c0 1.14905 0.55055 1.474625 1.15495 1.474625 0.62555 0 1.065525 -0.4688 1.3764 -1.0523 0.08235 0.18235 0.2041 0.39705 0.3685 0.56175 0.28235 0.282925 0.6329 0.49055 1.140525 0.49055 0.5794 0 1.076425 -0.332925 1.430525 -0.8482 0.0641 0.218225 0.160875 0.39705 0.293225 0.5294 0.1785 0.1794 0.5076 0.3188 0.915225 0.3188 0.7044 0 1.11555 -0.529675 2.213425 -0.529675 0.1394 0 0.2647 0.021475 0.3791 0.060875 -0.504375 0.307625 -0.983475 0.637025 -1.2764 0.93055 -0.90495 0.905825 -0.9479 2.10135 -0.3541 2.69545 0.722025 0.7232 1.7449 0.357925 2.3884 -0.282925 0.75085 -0.75145 0.969075 -2.17255 0.53645 -3.1428 0.52555 -0.27555 0.965525 -0.479375 1.06905 -0.529675 0.3291 0.44735 0.8726 0.7982 1.7664 0.7982 0.63995 0 1.287275 -0.225575 1.791375 -0.6085 0.07175 -0.067925 0.0894 -0.1791 0.03235 -0.257625l-0.0003 -0.0003Zm-19.4196 -0.307925c-0.2041 0.2041 -0.454375 0.314975 -0.7082 0.314975 -0.23585 0 -0.439675 -0.10735 -0.611425 -0.2794 -0.579385 -0.579675 -0.5293875 -2.007825 0.218225 -2.756025 0.210875 -0.21115 0.4682 -0.332925 0.729375 -0.332925 0.235875 0 0.439675 0.103825 0.611425 0.275575 0.5435 0.547625 0.575575 1.961675 -0.239675 2.7778h0.000275Zm8.284875 0.31145c-0.62585 0 -1.033475 -0.75525 -0.908475 -1.686075 0.125275 -0.93055 0.7332 -1.6858 1.35875 -1.6858 0.579375 0 0.9729 0.6479 0.92995 1.481975 -0.01795 0.121475 -0.03235 0.236175 -0.04295 0.350575 -0.168225 0.8629 -0.744075 1.539325 -1.337275 1.539325Zm5.209725 3.27895c-0.818775 0.819675 -1.862825 -0.225575 -0.643775 -1.4464 0.275575 -0.275575 0.729375 -0.579675 1.2017 -0.858775 0.267925 0.66555 0.05705 1.689325 -0.557925 2.305175Zm3.286025 -6.2929c0.61495 -0.61585 1.29815 -0.433225 1.29815 0.1647 0 0.5835 -0.6973 1.21345 -1.541075 1.7002 -0.08235 0.046475 -0.179125 0.1 -0.275575 0.150275 -0.03235 -0.14675 -0.05 -0.307925 -0.05 -0.49025 -0.003525 -0.50115 0.207325 -1.163475 0.5685 -1.524925Z" stroke-width="0.25"></path>
</svg>